<svg width="240" height="200" viewBox="0 0 240 200" fill="none" xmlns="http://www.w3.org/2000/svg">
<g filter="url(#filter0_dd_32_181)">
<path d="M66 18V80.439L88 101.902L122 72.6341L66 18Z" fill="#12183C"/>
<path d="M22 144.829L66 115.561V80.439L22 45.3171V144.829Z" fill="#12183C"/>
<path d="M22 45.3171L66 80.439V18L22 45.3171Z" fill="#28336B"/>
<path d="M122 72.6341L88 101.902L122 135.073V72.6341Z" fill="#28336B"/>
<path d="M66 178V115.561L22 144.829L66 178Z" fill="#FFE167"/>
<path d="M178 18V80.439L156 101.902L122 135.073V72.6341L178 18Z" fill="#12183C"/>
<path d="M222 144.829L178 115.561V80.439L222 45.3171V144.829Z" fill="#28336B"/>
<path d="M222 45.3171L178 80.439V18L222 45.3171Z" fill="#FFE167"/>
<path d="M178 178V115.561L222 144.829L178 178Z" fill="#FFE167"/>
</g>
<defs>
<filter id="filter0_dd_32_181" x="0" y="0" width="240" height="200" filterUnits="userSpaceOnUse" color-interpolation-filters="sRGB">
<feFlood flood-opacity="0" result="BackgroundImageFix"/>
<feColorMatrix in="SourceAlpha" type="matrix" values="0 0 0 0 0 0 0 0 0 0 0 0 0 0 0 0 0 0 127 0" result="hardAlpha"/>
<feOffset dx="3" dy="4"/>
<feGaussianBlur stdDeviation="7.5"/>
<feComposite in2="hardAlpha" operator="out"/>
<feColorMatrix type="matrix" values="0 0 0 0 0 0 0 0 0 0 0 0 0 0 0 0 0 0 0.35 0"/>
<feBlend mode="normal" in2="BackgroundImageFix" result="effect1_dropShadow_32_181"/>
<feColorMatrix in="SourceAlpha" type="matrix" values="0 0 0 0 0 0 0 0 0 0 0 0 0 0 0 0 0 0 127 0" result="hardAlpha"/>
<feOffset dx="-2" dy="2"/>
<feGaussianBlur stdDeviation="10"/>
<feComposite in2="hardAlpha" operator="out"/>
<feColorMatrix type="matrix" values="0 0 0 0 0 0 0 0 0 0 0 0 0 0 0 0 0 0 0.25 0"/>
<feBlend mode="normal" in2="effect1_dropShadow_32_181" result="effect2_dropShadow_32_181"/>
<feBlend mode="normal" in="SourceGraphic" in2="effect2_dropShadow_32_181" result="shape"/>
</filter>
</defs>
</svg>
